<?xml version="1.0" encoding="UTF-8" standalone="no"?><!DOCTYPE svg PUBLIC "-//W3C//DTD SVG 1.1//EN" "http://www.w3.org/Graphics/SVG/1.1/DTD/svg11.dtd"><svg width="100%" height="100%" viewBox="0 0 540 540" version="1.1" xmlns="http://www.w3.org/2000/svg" xmlns:xlink="http://www.w3.org/1999/xlink" xml:space="preserve" xmlns:serif="http://www.serif.com/" style="fill-rule:evenodd;clip-rule:evenodd;stroke-linejoin:round;stroke-miterlimit:2;"><g id="Layer1"><path d="M320.274,227.756c-0,-0 -43.917,5.484 -75.338,9.408c-9.841,1.229 -18.73,6.488 -24.545,14.521c-5.815,8.033 -8.035,18.12 -6.13,27.852c4.547,23.22 10.818,55.249 15.729,80.335c2.345,11.978 9.532,22.456 19.862,28.957c10.33,6.501 22.886,8.448 34.7,5.381c29.546,-7.671 65.161,-16.917 65.161,-16.917c3.474,-0.902 5.56,-4.45 4.658,-7.924c-0.902,-3.475 -4.45,-5.561 -7.925,-4.658l-65.161,16.916c-8.344,2.166 -17.212,0.791 -24.508,-3.801c-7.296,-4.591 -12.373,-11.992 -14.029,-20.452c-4.912,-25.086 -11.183,-57.114 -15.729,-80.335c-1.213,-6.196 0.2,-12.617 3.902,-17.731c3.702,-5.114 9.361,-8.461 15.626,-9.244c31.421,-3.924 75.338,-9.409 75.338,-9.409c3.562,-0.445 6.089,-3.693 5.644,-7.255c-0.445,-3.562 -3.693,-6.089 -7.255,-5.644Z" style="fill:#fff;"/><path d="M384.99,213.959c-0,-0 -21.555,27.134 -33.964,42.754c-6.633,8.35 -9.046,19.291 -6.541,29.656c2.435,10.075 5.757,23.822 8.164,33.783c2.54,10.511 12.246,17.694 23.042,17.05c9.362,-0.559 21.831,-1.302 30.979,-1.848c4.963,-0.296 9.531,-2.805 12.444,-6.835c2.912,-4.031 3.86,-9.156 2.583,-13.961c-5.752,-21.643 -17.336,-65.226 -17.336,-65.226c-0.922,-3.469 -4.482,-5.534 -7.951,-4.612c-3.47,0.922 -5.535,4.482 -4.613,7.952c0,-0 11.584,43.582 17.336,65.225c0.275,1.035 0.071,2.139 -0.556,3.008c-0.628,0.868 -1.612,1.408 -2.681,1.472c-0,0 -30.979,1.848 -30.979,1.848c-4.513,0.269 -8.57,-2.733 -9.632,-7.127c-2.407,-9.961 -5.729,-23.708 -8.164,-33.783c-1.564,-6.472 -0.057,-13.303 4.084,-18.516c0,0 33.964,-42.754 33.964,-42.754c2.233,-2.811 1.764,-6.9 -1.047,-9.133c-2.811,-2.233 -6.899,-1.764 -9.132,1.047Z" style="fill:#fff;"/><path d="M169.165,324.603c12.266,-7.788 24.363,-18.344 31.462,-30.236c9.376,-15.706 10.757,-33.654 -5.362,-51.334c-4.03,-6.187 -12.829,-10.489 -25.801,-12.068c-25.197,-3.066 -68.01,2.776 -114.468,10.628c-3.54,0.598 -5.924,3.952 -5.326,7.492c0.598,3.54 3.953,5.924 7.492,5.326c38.704,-6.541 74.792,-11.788 99.737,-11.264c7.745,0.163 14.342,0.87 19.485,2.369c3.717,1.083 6.586,2.382 8.008,4.642c0.327,0.528 0.689,1.005 1.094,1.445c11.445,12.43 10.573,25.053 3.979,36.101c-7.436,12.457 -21.363,23.027 -34.072,29.928c-4.154,2.227 -6.283,6.944 -5.207,11.51c1.079,4.58 5.11,7.856 9.814,7.976c-0,0 -0,0 -0,0c10.386,0.265 22.931,1.566 32.721,6.01c5.482,2.488 10.093,5.946 12.319,11.174c2.532,5.947 1.899,13.809 -2.6,24.287c-0.003,0.006 -0.006,0.013 -0.009,0.02c-0.914,2.147 -2.614,3.862 -4.752,4.795c-31.919,13.774 -64.352,22.857 -97.046,29.573c-0.004,0.001 -0.008,0.002 -0.012,0.003c-2.595,0.538 -5.275,-0.395 -6.974,-2.427c-1.7,-2.033 -2.143,-4.836 -1.154,-7.294c0.004,-0.01 0.008,-0.021 0.012,-0.031c5.244,-13.23 7.163,-30.014 7.399,-49.132c0.338,-27.364 -2.696,-59.704 -3.109,-92.982c-0.045,-3.59 -2.991,-6.464 -6.58,-6.419c-3.59,0.044 -6.464,2.991 -6.419,6.58c0.412,33.163 3.445,65.391 3.109,92.661c-0.213,17.293 -1.737,32.508 -6.476,44.479c-2.772,6.912 -1.524,14.774 3.245,20.477c4.773,5.709 12.301,8.328 19.587,6.817c33.542,-6.89 66.82,-16.236 99.569,-30.369c0.005,-0.002 0.01,-0.004 0.015,-0.006c5.191,-2.255 9.32,-6.412 11.541,-11.618c6.374,-14.845 6.203,-26.081 2.614,-34.507c-3.486,-8.188 -10.32,-14.022 -18.906,-17.919c-8.641,-3.922 -19.116,-5.857 -28.929,-6.687Z" style="fill:#fff;"/><path d="M419.523,231.169l38,-29c2.853,-2.178 3.401,-6.257 1.223,-9.111c-2.177,-2.853 -6.256,-3.401 -9.11,-1.223l-38,29c-2.854,2.177 -3.402,6.256 -1.224,9.11c2.178,2.854 6.257,3.402 9.111,1.224Z" style="fill:#fff;"/><path d="M430.428,273.091l45.463,-14.77c3.414,-1.109 5.283,-4.776 4.173,-8.19c-1.109,-3.414 -4.776,-5.283 -8.19,-4.174l-45.463,14.77c-3.414,1.109 -5.282,4.776 -4.173,8.19c1.109,3.414 4.776,5.283 8.19,4.174Z" style="fill:#fff;"/><circle cx="181.394" cy="166.353" r="35.315" style="fill:#fff;"/><circle cx="272.144" cy="166.353" r="28.065" style="fill:#fff;"/><path d="M435.78,308.278l47.682,3.373c3.581,0.254 6.689,-2.444 6.943,-6.025c0.253,-3.581 -2.445,-6.689 -6.025,-6.942l-47.683,-3.374c-3.581,-0.253 -6.689,2.444 -6.942,6.025c-0.254,3.581 2.444,6.689 6.025,6.943Z" style="fill:#fff;"/><path d="M272.144,213.002c-25.81,-7.935 -54.465,-4.536 -84.944,5.213c-14.734,4.693 -30.855,1.002 -42.078,-9.635c-32.424,-30.647 -23.171,-95.66 36.272,-95.078c41.733,0.408 194.561,-5.975 118.815,88.166" style="fill:#fff;"/></g></svg>